<!--
  Xen design system — node variant reference, 1:1 from Figma.
  Six variants: default · only-inputs · 3-in-2-out · without-output · pill-orange · pill-green.
  Do not edit. Replace as a whole when Figma source updates.
-->
<svg width="198" height="558" viewBox="0 0 198 558" fill="none" xmlns="http://www.w3.org/2000/svg">
<rect x="0.5" y="0.5" width="197" height="557" rx="4.5" stroke="#FCB400" stroke-dasharray="10 5"/>
<g clip-path="url(#clip0_155_7675)">
<rect x="24" y="20" width="150" height="70" rx="7" fill="#0F110E"/>
<foreignObject x="18" y="14" width="163" height="37"><div xmlns="http://www.w3.org/1999/xhtml" style="backdrop-filter:blur(4px);clip-path:url(#bgblur_1_155_7675_clip_path);height:100%;width:100%"></div></foreignObject><g filter="url(#filter0_i_155_7675)" data-figma-bg-blur-radius="8">
<path d="M26 27C26 24.2386 28.2386 22 31 22H168C170.761 22 173 24.2386 173 27V43H26V27Z" fill="url(#paint0_linear_155_7675)" fill-opacity="0.6"/>
</g>
<path d="M26.5 29L26.3826 27.3562C26.1758 24.4619 28.4682 22 31.3699 22H167.735C170.778 22 173.115 24.6949 172.685 27.7071L172.5 29" stroke="url(#paint1_linear_155_7675)" stroke-width="0.5"/>
<path d="M40.5 30.25L37 33.75L33.5 30.25" stroke="white" stroke-linecap="round"/>
<g clip-path="url(#clip2_155_7675)">
<circle cx="4" cy="4" r="3.5" transform="matrix(-1 0 0 1 28 56.5)" fill="#85C244" stroke="#1A1A1A"/>
</g>
<g clip-path="url(#clip3_155_7675)">
<circle cx="4" cy="4" r="3.5" transform="matrix(-1 0 0 1 178 56.5)" fill="#85C244" stroke="#1A1A1A"/>
</g>
</g>
<g clip-path="url(#clip4_155_7675)">
<rect x="24.5" y="106.5" width="149" height="84" rx="6.5" fill="#0F110E"/>
<rect x="24.5" y="106.5" width="149" height="84" rx="6.5" stroke="white"/>
<foreignObject x="18" y="100" width="163" height="37"><div xmlns="http://www.w3.org/1999/xhtml" style="backdrop-filter:blur(4px);clip-path:url(#bgblur_5_155_7675_clip_path);height:100%;width:100%"></div></foreignObject><g filter="url(#filter1_i_155_7675)" data-figma-bg-blur-radius="8">
<path d="M26 113C26 110.239 28.2386 108 31 108H168C170.761 108 173 110.239 173 113V129H26V113Z" fill="url(#paint2_linear_155_7675)" fill-opacity="0.6"/>
</g>
<path d="M38.5 116.25L35 119.75L31.5 116.25" stroke="white" stroke-linecap="round"/>
<g clip-path="url(#clip6_155_7675)">
<circle cx="4" cy="4" r="3.5" transform="matrix(-1 0 0 1 28 142.5)" fill="#3E95B9" stroke="#1A1A1A"/>
</g>
<g clip-path="url(#clip7_155_7675)">
<circle cx="4" cy="4" r="3.5" transform="matrix(-1 0 0 1 28 163.5)" fill="#3E95B9" stroke="#1A1A1A"/>
</g>
</g>
<g clip-path="url(#clip8_155_7675)">
<rect x="24" y="215" width="150" height="105" rx="7" fill="#0F110E"/>
<foreignObject x="18" y="209" width="162" height="37"><div xmlns="http://www.w3.org/1999/xhtml" style="backdrop-filter:blur(4px);clip-path:url(#bgblur_9_155_7675_clip_path);height:100%;width:100%"></div></foreignObject><g filter="url(#filter2_i_155_7675)" data-figma-bg-blur-radius="8">
<path d="M26 222C26 219.239 28.2386 217 31 217H167C169.761 217 172 219.239 172 222V238H26V222Z" fill="url(#paint3_linear_155_7675)" fill-opacity="0.6"/>
</g>
<path d="M39.5 226.25L36 229.75L32.5 226.25" stroke="white" stroke-linecap="round"/>
<g clip-path="url(#clip10_155_7675)">
<circle cx="4" cy="4" r="3.5" transform="matrix(-1 0 0 1 28 252.5)" fill="#85C244" stroke="#1A1A1A"/>
</g>
<g clip-path="url(#clip11_155_7675)">
<circle cx="4" cy="4" r="3.5" transform="matrix(-1 0 0 1 28 273.5)" fill="white" stroke="#1A1A1A"/>
</g>
<g clip-path="url(#clip12_155_7675)">
<circle cx="4" cy="4" r="3.5" transform="matrix(-1 0 0 1 28 294.5)" stroke="#9AD6E3"/>
</g>
<g clip-path="url(#clip13_155_7675)">
<circle cx="4" cy="4" r="3.5" transform="matrix(-1 0 0 1 178 253)" fill="#3E95B9" stroke="#1A1A1A"/>
</g>
<g clip-path="url(#clip14_155_7675)">
<circle cx="4" cy="4" r="3.5" transform="matrix(-1 0 0 1 178 275)" fill="#3E95B9" stroke="#1A1A1A"/>
</g>
</g>
<g clip-path="url(#clip15_155_7675)">
<rect x="24" y="336" width="150" height="70" rx="7" fill="#0F110E"/>
<foreignObject x="18" y="330" width="162" height="37"><div xmlns="http://www.w3.org/1999/xhtml" style="backdrop-filter:blur(4px);clip-path:url(#bgblur_16_155_7675_clip_path);height:100%;width:100%"></div></foreignObject><g filter="url(#filter3_i_155_7675)" data-figma-bg-blur-radius="8">
<path d="M26 343C26 340.239 28.2386 338 31 338H167C169.761 338 172 340.239 172 343V359H26V343Z" fill="url(#paint4_linear_155_7675)" fill-opacity="0.6"/>
</g>
<path d="M42.5 347.25L39 350.75L35.5 347.25" stroke="white" stroke-linecap="round"/>
<g clip-path="url(#clip17_155_7675)">
<circle cx="4" cy="4" r="3.5" transform="matrix(-1 0 0 1 28 373.5)" fill="#FF5622" stroke="#1A1A1A"/>
</g>
<g clip-path="url(#clip18_155_7675)">
<circle cx="4" cy="4" r="3.5" transform="matrix(-1 0 0 1 178 373.5)" fill="#3E95B9" stroke="#1A1A1A"/>
</g>
</g>
<g clip-path="url(#clip19_155_7675)">
<foreignObject x="20" y="428" width="148" height="48"><div xmlns="http://www.w3.org/1999/xhtml" style="backdrop-filter:blur(2px);clip-path:url(#bgblur_20_155_7675_clip_path);height:100%;width:100%"></div></foreignObject><g filter="url(#filter4_i_155_7675)" data-figma-bg-blur-radius="4">
<rect x="24" y="432" width="140" height="40" rx="20" fill="#0F110E"/>
<rect x="24" y="432" width="140" height="40" rx="20" fill="url(#paint5_linear_155_7675)" fill-opacity="0.5"/>
</g>
<g clip-path="url(#clip21_155_7675)">
<circle cx="4" cy="4" r="3.5" transform="matrix(-1 0 0 1 37 432)" fill="#FF5622" stroke="#1A1A1A"/>
</g>
<g clip-path="url(#clip22_155_7675)">
<circle cx="4" cy="4" r="3.5" transform="matrix(-1 0 0 1 28 442)" fill="#85C244" stroke="#1A1A1A"/>
</g>
<g clip-path="url(#clip23_155_7675)">
<circle cx="33" cy="468" r="3.5" transform="rotate(-180 33 468)" fill="white" stroke="#1A1A1A"/>
</g>
<g clip-path="url(#clip24_155_7675)">
<circle cx="24" cy="458" r="3.5" transform="rotate(-180 24 458)" fill="white" stroke="#1A1A1A"/>
</g>
<path d="M48.25 448.5L51.75 452L48.25 455.5" stroke="white" stroke-linecap="round"/>
<g clip-path="url(#clip25_155_7675)">
<circle cx="4" cy="4" r="3.5" transform="matrix(-1 0 0 1 167 448)" fill="white" stroke="#1A1A1A"/>
</g>
</g>
<foreignObject x="11" y="486" width="148" height="48"><div xmlns="http://www.w3.org/1999/xhtml" style="backdrop-filter:blur(2px);clip-path:url(#bgblur_26_155_7675_clip_path);height:100%;width:100%"></div></foreignObject><g filter="url(#filter5_i_155_7675)" data-figma-bg-blur-radius="4">
<rect x="15" y="490" width="140" height="40" rx="20" fill="#0F110E"/>
<rect x="15" y="490" width="140" height="40" rx="20" fill="url(#paint6_linear_155_7675)" fill-opacity="0.5"/>
</g>
<path d="M32.25 506.5L35.75 510L32.25 513.5" stroke="white" stroke-linecap="round"/>
<g clip-path="url(#clip27_155_7675)">
<circle cx="4" cy="4" r="3.5" transform="matrix(-1 0 0 1 158 506)" fill="#FF5622" stroke="#1A1A1A"/>
</g>
<defs>
<linearGradient id="paint0_linear_155_7675" x1="26" y1="32.5" x2="173" y2="32.5" gradientUnits="userSpaceOnUse">
<stop stop-color="#85C244"/><stop offset="1" stop-color="#30342E"/>
</linearGradient>
<linearGradient id="paint1_linear_155_7675" x1="103.5" y1="23" x2="103.5" y2="26" gradientUnits="userSpaceOnUse">
<stop stop-color="white"/><stop offset="1" stop-color="#999999" stop-opacity="0"/>
</linearGradient>
<linearGradient id="paint2_linear_155_7675" x1="26" y1="118.5" x2="173" y2="118.5" gradientUnits="userSpaceOnUse">
<stop stop-color="#3E95B9"/><stop offset="1" stop-color="#30342E"/>
</linearGradient>
<linearGradient id="paint3_linear_155_7675" x1="26" y1="227.5" x2="172" y2="227.5" gradientUnits="userSpaceOnUse">
<stop stop-color="#8A38F5"/><stop offset="1" stop-color="#30342E"/>
</linearGradient>
<linearGradient id="paint4_linear_155_7675" x1="26" y1="348.5" x2="172" y2="348.5" gradientUnits="userSpaceOnUse">
<stop stop-color="white"/><stop offset="1" stop-color="#30342E"/>
</linearGradient>
<linearGradient id="paint5_linear_155_7675" x1="36.7273" y1="452.513" x2="151.273" y2="452.513" gradientUnits="userSpaceOnUse">
<stop offset="0.0432692" stop-color="#0F110E"/><stop offset="0.519231" stop-color="#FF5622" stop-opacity="0.6"/><stop offset="1" stop-color="#0F110E"/>
</linearGradient>
<linearGradient id="paint6_linear_155_7675" x1="27.7273" y1="510.513" x2="142.273" y2="510.513" gradientUnits="userSpaceOnUse">
<stop offset="0.0432692" stop-color="#0F110E"/><stop offset="0.519231" stop-color="#85C244" stop-opacity="0.6"/><stop offset="1" stop-color="#0F110E"/>
</linearGradient>
</defs>
</svg>
